# xmcd
#
# Track frame offsets:
#	182
#	11447
#	21827
#	30495
#	45267
#	59247
#	67635
#	79625
#	90335
#	103242
#	112872
#	125600
#	135447
#	145130
#	154762
#	169912
#
# Disc length: 2406 seconds
#
# Revision: 1
# Processed by: cddbd v1.4PL0 Copyright (c) Steve Scherf et al.
# Submitted via: audiograbber 1.81.02
#
DISCID=c1096410
DTITLE=Various Artist - The Bluegrass Hall Of Fame
DYEAR=1900
DGENRE=
TTITLE0=Red Allen and The Kentuckians - Beautiful Blue Eyes
TTITLE1=Jim and Jesse - Let Me Whisper
TTITLE2=Jimmie Skinner - Fallen Leaves
TTITLE3=Country Gentlemen - Sunrise
TTITLE4=Stanley Bros. - Rank Strangers To Me
TTITLE5=Stringbean - String's Mountain Dew
TTITLE6=Flatt and Scruggs - Foggy Mountain Breakdown
TTITLE7=Reno and Smiley - Home Sweet Home
TTITLE8=J.E. Mainer - Run Mountain
TTITLE9=Sam and Kirk McGee - My Gal's A High Born Lady
TTITLE10=Grandpa Jones - Old Rattler
TTITLE11=Hylo Brown - Hills Of Georgia
TTITLE12=Bill Clifton - Walking in My Sleep
TTITLE13=Kentucky Travelers - The Moon Saw Me Crying
TTITLE14=Carl Story - Tramp On The Street
TTITLE15=Lonesome Pine Fiddlers - Windy Mountain
EXTD=
EXTT0=
EXTT1=
EXTT2=
EXTT3=
EXTT4=
EXTT5=
EXTT6=
EXTT7=
EXTT8=
EXTT9=
EXTT10=
EXTT11=
EXTT12=
EXTT13=
EXTT14=
EXTT15=
PLAYORDER=
